<svg xmlns="http://www.w3.org/2000/svg" xmlns:xlink="http://www.w3.org/1999/xlink" viewBox="0 0 512 512"><circle fill="#f0f0f0" r="256" cy="256" cx="256"/><path fill="#ff9811" d="M256 0C154.506 0 66.81 59.065 25.402 144.696h461.195C445.19 59.065 357.493 0 256 0z"/><path fill="#6da544" d="M256 512c101.493 0 189.19-59.065 230.598-144.696H25.402C66.81 452.935 154.506 512 256 512z"/><circle fill="#f0f0f0" r="55.652" cy="256" cx="256"/><g transform="matrix(4.43801 0 0 4.43801 256 256)"><path d="M-.065-20A20 20 0 00-20 0 20 20 0 000 20 20 20 0 0020 0 20 20 0 000-20a20 20 0 00-.065 0zm.027 2.5a17.5 17.5 0 01.038 0A17.5 17.5 0 0117.5 0 17.5 17.5 0 010 17.5 17.5 17.5 0 01-17.5 0 17.5 17.5 0 01-.038-17.5z" fill="#008"/><circle r="3.5" fill="#008"/><g id="d"><g id="c"><g id="b"><g id="a" fill="#008"><circle r=".875" transform="rotate(7.5 -8.75 133.5)"/><path d="M0 17.5L.6 7 0 2l-.6 5z"/></g><use height="100%" width="100%" xlink:href="#a" transform="rotate(15)"/></g><use height="100%" width="100%" xlink:href="#b" transform="rotate(30)"/></g><use height="100%" width="100%" xlink:href="#c" transform="rotate(60)"/></g><use height="100%" width="100%" xlink:href="#d" transform="rotate(120)"/><use height="100%" width="100%" xlink:href="#d" transform="rotate(-120)"/></g></svg>