<svg xmlns="http://www.w3.org/2000/svg" viewBox="0 0 512 512"><circle fill="#f0f0f0" r="256" cy="256" cx="256"/><path fill="#0052b4" d="M496.077 166.957H15.923C5.633 194.689 0 224.686 0 256c0 31.314 5.633 61.31 15.923 89.043L256 367.304l240.077-22.261C506.367 317.31 512 287.314 512 256c0-31.314-5.633-61.311-15.923-89.043z"/><path fill="#d80027" d="M256 512c110.071 0 203.906-69.472 240.077-166.957H15.923C52.094 442.528 145.929 512 256 512z"/><path d="M155.798 82.384c-1.199.002-2.394.027-3.587.062-23.193.6-44.968 6.59-60.472 13.895l.001.02a201.908 201.908 0 00-4.935 2.13l5.33 83.474c3.692 43.621 32.12 69.02 63.705 78.992 31.585-9.973 60.011-35.37 63.704-78.992l5.3-83.21a121.597 121.597 0 00-4.936-2.393l.002-.021c-16.296-7.678-39.515-13.913-64.031-13.955l-.054-.002h-.027z" fill="#0052b4" fill-rule="evenodd" opacity=".971"/><path d="M155.838 140.148l-15.59 30.443-10.078-13.093-26.336 34.804a87.074 87.074 0 001.645 6.282c2.942 4.964 8.594 10.63 15.843 10.63 5.753 0 11.505-4.602 17.258-4.602 5.753 0 11.506 4.603 17.258 4.603 5.753 0 11.506-4.603 17.258-4.603 5.753 0 11.506 4.603 17.258 4.603 7.184 0 12.799-5.562 15.763-10.493.632-2.091 1.2-4.245 1.691-6.466l-26.301-34.758-10.079 13.093zm-17.258 69.067c-5.753 0-11.505 4.602-17.258 4.602-4.553 0-8.464-1.613-11.494-3.9 1.07 2.27 2.202 4.479 3.44 6.569 2.374 1.476 5.07 2.474 8.054 2.474 5.753 0 11.505-4.602 17.258-4.602 5.753 0 11.506 4.602 17.258 4.602 5.753 0 11.506-4.602 17.258-4.602 5.753 0 11.506 4.602 17.258 4.602 2.942 0 5.601-.976 7.95-2.416 1.238-2.084 2.37-4.285 3.44-6.547-3.015 2.245-6.89 3.82-11.39 3.82-5.752 0-11.505-4.602-17.258-4.602-5.752 0-11.505 4.602-17.258 4.602-5.752 0-11.505-4.602-17.258-4.602zm0 9.745c-5.753 0-11.505 4.602-17.258 4.602-1.25 0-2.438-.147-3.59-.368 9.953 13.296 23.531 22.196 38.095 27.313 14.533-5.11 28.09-14.015 38.037-27.29-1.126.211-2.29.345-3.51.345-5.752 0-11.505-4.602-17.258-4.602-5.752 0-11.505 4.602-17.258 4.602-5.752 0-11.505-4.602-17.258-4.602z" fill="#fff" fill-rule="evenodd" opacity=".971"/><g fill="#ffe500" opacity=".971" fill-rule="evenodd"><path d="M129.887 93.554h13.051l-6.525 11.301"/><path d="M129.887 101.087h13.052l-6.526-11.301"/></g><g fill="#ffe500" opacity=".971" fill-rule="evenodd"><path d="M168.738 93.554h13.051l-6.525 11.301"/><path d="M168.738 101.087h13.052l-6.526-11.301"/><g><path d="M149.312 119.57h13.052l-6.526 11.301"/><path d="M149.313 127.103h13.052l-6.526-11.301"/></g></g><path d="M155.803 82.384zm-64.06 13.978a201.831 201.831 0 00-4.936 2.129l5.33 83.476c3.692 43.621 32.118 69.017 63.703 78.99 31.585-9.973 60.011-35.369 63.704-78.99l5.3-83.211a121.566 121.566 0 00-4.936-2.394l-4.945 82.84c-3.428 42.411-29.816 67.103-59.137 76.799-29.321-9.696-55.71-34.388-59.138-76.798z" fill="#d80027" fill-rule="evenodd" opacity=".971"/></svg>